# xmcd
#
# Track frame offsets:
#	150
#	16290
#	60990
#
# Disc length: 1145 seconds
# Revision: 0
# Processed by: cddbd v1.5.2PL0 Copyright (c) Steve Scherf et al.
# Submitted via: dBpowerAMP V12.0
#
DISCID=18047703
DTITLE=Black Box - Hold On
DYEAR=1992
DGENRE=House
TTITLE0=Hold On [Radio Remix]
TTITLE1=Hold On [Lelewel Garage Remix]
TTITLE2=Hold On [Lelewel Hard Remix]
EXTD=
EXTT0=
EXTT1=
EXTT2=
PLAYORDER=
